<svg width="55" height="55" viewBox="0 0 55 55" fill="none" xmlns="http://www.w3.org/2000/svg">
<circle cx="27.5" cy="27.5" r="27" stroke="#0085FF"/>
<path d="M19.0417 28.9259V32.3213C19.0417 33.2034 19.525 34.025 20.2983 34.448L26.34 37.7467C27.065 38.1455 27.935 38.1455 28.66 37.7467L34.7017 34.448C35.475 34.025 35.9583 33.2034 35.9583 32.3213V28.9259L28.66 32.9134C27.935 33.3121 27.065 33.3121 26.34 32.9134L19.0417 28.9259ZM26.34 17.2534L16.1538 22.8117C15.32 23.2709 15.32 24.4792 16.1538 24.9384L26.34 30.4967C27.065 30.8955 27.935 30.8955 28.66 30.4967L38.375 25.1921V32.3334C38.375 32.998 38.9188 33.5417 39.5833 33.5417C40.2479 33.5417 40.7917 32.998 40.7917 32.3334V24.588C40.7917 24.1409 40.55 23.7421 40.1633 23.5246L28.66 17.2534C27.935 16.8667 27.065 16.8667 26.34 17.2534Z" fill="#717171"/>
</svg>
