<svg width="55" height="55" viewBox="0 0 55 55" fill="none" xmlns="http://www.w3.org/2000/svg">
<circle cx="27.5" cy="27.5" r="27" stroke="#0085FF"/>
<path fill-rule="evenodd" clip-rule="evenodd" d="M33.1429 28.8654C34.7984 29.9892 35.9584 31.5117 35.9584 33.5417V37.1667H40.7917V33.5417C40.7917 30.9075 36.4779 29.3488 33.1429 28.8654Z" fill="#717171"/>
<path d="M23.875 27.5C26.5443 27.5 28.7083 25.336 28.7083 22.6666C28.7083 19.9973 26.5443 17.8333 23.875 17.8333C21.2056 17.8333 19.0416 19.9973 19.0416 22.6666C19.0416 25.336 21.2056 27.5 23.875 27.5Z" fill="black" fill-opacity="0.54"/>
<path fill-rule="evenodd" clip-rule="evenodd" d="M31.125 27.5C33.7954 27.5 35.9584 25.3371 35.9584 22.6666C35.9584 19.9962 33.7954 17.8333 31.125 17.8333C30.5571 17.8333 30.0254 17.9541 29.5179 18.1233C30.5209 19.3679 31.125 20.9508 31.125 22.6666C31.125 24.3825 30.5209 25.9654 29.5179 27.21C30.0254 27.3791 30.5571 27.5 31.125 27.5Z" fill="black" fill-opacity="0.54"/>
<path fill-rule="evenodd" clip-rule="evenodd" d="M23.875 28.7083C20.6488 28.7083 14.2084 30.3275 14.2084 33.5416V37.1666H33.5417V33.5416C33.5417 30.3275 27.1013 28.7083 23.875 28.7083Z" fill="black" fill-opacity="0.54"/>
</svg>
