<svg width="55" height="55" viewBox="0 0 55 55" fill="none" xmlns="http://www.w3.org/2000/svg">
<circle cx="27.5" cy="27.5" r="27" stroke="#0085FF"/>
<path d="M27.5 40.7917C28.8291 40.7917 29.9045 39.7162 29.9045 38.3871H25.0954C25.0954 39.7162 26.1708 40.7917 27.5 40.7917ZM37.517 35.1004L35.9583 33.5417V26.2917C35.9583 22.2437 33.1066 18.8604 29.3125 18.0387V16.625C29.3125 15.6221 28.5029 14.8125 27.5 14.8125C26.497 14.8125 25.6875 15.6221 25.6875 16.625V18.0387C21.8933 18.8604 19.0416 22.2437 19.0416 26.2917V33.5417L17.4829 35.1004C16.7216 35.8617 17.2533 37.1667 18.3287 37.1667H36.6591C37.7466 37.1667 38.2783 35.8617 37.517 35.1004ZM28.7083 32.3333H26.2916V29.9167H28.7083V32.3333ZM28.7083 26.2917C28.7083 26.9562 28.1645 27.5 27.5 27.5C26.8354 27.5 26.2916 26.9562 26.2916 26.2917V23.875C26.2916 23.2104 26.8354 22.6667 27.5 22.6667C28.1645 22.6667 28.7083 23.2104 28.7083 23.875V26.2917Z" fill="#717171"/>
</svg>
