<svg width="30" height="30" viewBox="0 0 30 30" fill="none" xmlns="http://www.w3.org/2000/svg">
<path fill-rule="evenodd" clip-rule="evenodd" d="M4.99988 0H25.0001C26.3262 0 27.5978 0.526703 28.5355 1.46443C29.4732 2.40211 30 3.67378 30 4.99988V25.0001C30 26.3262 29.4732 27.5979 28.5355 28.5356C27.5978 29.4733 26.3262 30 25.0001 30H4.99988C3.67383 30 2.40216 29.4733 1.46448 28.5356C0.526794 27.5979 0 26.3262 0 25.0001V4.99988C0 3.67378 0.526794 2.40211 1.46448 1.46443C2.40216 0.526703 3.67383 0 4.99988 0ZM26.7678 26.7676C27.2368 26.2989 27.4999 25.663 27.5002 25L27.4999 4.99979C27.4999 4.33685 27.2368 3.70088 26.7678 3.23218C26.2991 2.7632 25.663 2.49994 25.0001 2.49994H4.99988C4.33704 2.49994 3.70093 2.7632 3.23218 3.23218C2.76324 3.70088 2.50012 4.33685 2.50012 4.99979V25C2.50012 25.663 2.76324 26.2989 3.23218 26.7676C3.70093 27.2366 4.33704 27.4998 4.99988 27.4998H25.0001C25.663 27.4998 26.2991 27.2366 26.7678 26.7676ZM23.127 8.74947C24.1624 8.74947 25.002 7.91016 25.002 6.87451C25.002 5.8391 24.1624 4.99951 23.127 4.99951C22.0913 4.99951 21.252 5.8391 21.252 6.87451C21.252 7.91016 22.0913 8.74947 23.127 8.74947ZM9.69663 9.69663C11.1033 8.29017 13.0109 7.5 14.9999 7.5C16.989 7.5 18.8966 8.29017 20.3033 9.69663C21.7097 11.1033 22.4999 13.0109 22.4999 14.9999C22.4999 16.989 21.7097 18.8966 20.3033 20.3033C18.8966 21.7097 16.989 22.4999 14.9999 22.4999C13.0109 22.4999 11.1033 21.7097 9.69663 20.3033C8.29017 18.8966 7.5 16.989 7.5 14.9999C7.5 13.0109 8.29017 11.1033 9.69663 9.69663Z" fill="white"/>
</svg>
