<svg width="55" height="55" viewBox="0 0 55 55" fill="none" xmlns="http://www.w3.org/2000/svg">
<circle cx="27.5" cy="27.5" r="27" stroke="#0085FF"/>
<path fill-rule="evenodd" clip-rule="evenodd" d="M33.8374 29.4125C35.5499 30.575 36.7499 32.15 36.7499 34.25V38H41.7499V34.25C41.7499 31.525 37.2874 29.9125 33.8374 29.4125Z" fill="#717171"/>
<path d="M24.25 28C27.0114 28 29.25 25.7614 29.25 23C29.25 20.2386 27.0114 18 24.25 18C21.4886 18 19.25 20.2386 19.25 23C19.25 25.7614 21.4886 28 24.25 28Z" fill="black" fill-opacity="0.54"/>
<path fill-rule="evenodd" clip-rule="evenodd" d="M31.7499 28C34.5124 28 36.7499 25.7625 36.7499 23C36.7499 20.2375 34.5124 18 31.7499 18C31.1624 18 30.6124 18.125 30.0874 18.3C31.1249 19.5875 31.7499 21.225 31.7499 23C31.7499 24.775 31.1249 26.4125 30.0874 27.7C30.6124 27.875 31.1624 28 31.7499 28Z" fill="black" fill-opacity="0.54"/>
<path fill-rule="evenodd" clip-rule="evenodd" d="M24.25 29.25C20.9125 29.25 14.25 30.925 14.25 34.25V38H34.25V34.25C34.25 30.925 27.5875 29.25 24.25 29.25Z" fill="black" fill-opacity="0.54"/>
</svg>
