<svg width="55" height="55" viewBox="0 0 55 55" fill="none" xmlns="http://www.w3.org/2000/svg">
<circle cx="27.5" cy="27.5" r="27" stroke="#0085FF"/>
<path d="M28 15.5C21.1 15.5 15.5 21.1 15.5 28C15.5 34.9 21.1 40.5 28 40.5C34.9 40.5 40.5 34.9 40.5 28C40.5 21.1 34.9 15.5 28 15.5ZM29.7625 35.6125V38H26.425V35.5875C24.2875 35.1375 22.475 33.7625 22.3375 31.3375H24.7875C24.9125 32.65 25.8125 33.675 28.1 33.675C30.55 33.675 31.1 32.45 31.1 31.6875C31.1 30.65 30.55 29.675 27.7625 29.0125C24.6625 28.2625 22.5375 26.9875 22.5375 24.425C22.5375 22.275 24.275 20.875 26.425 20.4125V18H29.7625V20.4375C32.0875 21 33.25 22.7625 33.325 24.675H30.875C30.8125 23.2875 30.075 22.3375 28.1 22.3375C26.225 22.3375 25.1 23.1875 25.1 24.3875C25.1 25.4375 25.9125 26.125 28.4375 26.775C30.9625 27.425 33.6625 28.5125 33.6625 31.6625C33.65 33.95 31.9375 35.2 29.7625 35.6125Z" fill="#717171"/>
</svg>
