<svg width="55" height="55" viewBox="0 0 55 55" fill="none" xmlns="http://www.w3.org/2000/svg">
<circle cx="27.5" cy="27.5" r="27" stroke="#0085FF"/>
<path d="M39.5833 17.8333H37.1666C36.502 17.8333 35.9583 18.3771 35.9583 19.0416V29.9166C35.9583 30.5812 36.502 31.125 37.1666 31.125H39.5833V17.8333ZM15.622 26.4366C15.4891 26.7387 15.4166 27.065 15.4166 27.4033V28.7083C15.4166 30.0375 16.5041 31.125 17.8333 31.125H24.4791L23.3675 36.7437C23.307 37.0096 23.3433 37.2996 23.4641 37.5412C23.742 38.085 24.0925 38.5804 24.5275 39.0154L25.0833 39.5833L32.8287 31.8379C33.2879 31.3787 33.5416 30.7625 33.5416 30.1221V20.6608C33.5416 19.1021 32.2729 17.8333 30.7141 17.8333H20.9266C20.0687 17.8333 19.2833 18.2804 18.8483 19.0054L15.622 26.4366Z" fill="#717171"/>
</svg>
