<svg width="55" height="55" viewBox="0 0 55 55" fill="none" xmlns="http://www.w3.org/2000/svg">
<circle cx="27.5" cy="27.5" r="27" stroke="#0085FF"/>
<path d="M28 15.5C21.1 15.5 15.5 21.1 15.5 28C15.5 34.9 21.1 40.5 28 40.5C34.9 40.5 40.5 34.9 40.5 28C40.5 21.1 34.9 15.5 28 15.5ZM28 38C22.4875 38 18 33.5125 18 28C18 22.4875 22.4875 18 28 18C33.5125 18 38 22.4875 38 28C38 33.5125 33.5125 38 28 38ZM28.3875 26.925C26.175 26.3625 25.4625 25.75 25.4625 24.8375C25.4625 23.7875 26.45 23.05 28.0875 23.05C29.8125 23.05 30.4625 23.875 30.5125 25.1H32.65C32.5875 23.425 31.5625 21.8875 29.5375 21.3875V19.25H26.625V21.3625C24.7375 21.7625 23.225 22.9875 23.225 24.875C23.225 27.1125 25.0875 28.2375 27.8 28.8875C30.2375 29.4625 30.725 30.325 30.725 31.225C30.725 31.8875 30.2375 32.9625 28.1 32.9625C26.1 32.9625 25.3125 32.0625 25.2 30.9125H23.05C23.175 33.0375 24.75 34.2375 26.625 34.625V36.75H29.55V34.6625C31.45 34.3 32.95 33.2125 32.9625 31.2C32.95 28.45 30.5875 27.5 28.3875 26.925Z" fill="#717171"/>
</svg>
