<svg width="55" height="55" viewBox="0 0 55 55" fill="none" xmlns="http://www.w3.org/2000/svg">
<circle cx="27.5" cy="27.5" r="27" stroke="#0085FF"/>
<path d="M34.4237 27.5242L39.2328 22.7151C39.7041 22.2438 39.7041 21.4826 39.2328 21.0113L33.9887 15.7671C33.5174 15.2959 32.7562 15.2959 32.2849 15.7671L27.4758 20.5763L22.6666 15.7671C22.4249 15.5376 22.1228 15.4167 21.8087 15.4167C21.5066 15.4167 21.1924 15.5376 20.9628 15.7671L15.7187 21.0113C15.2474 21.4826 15.2474 22.2438 15.7187 22.7151L20.5278 27.5242L15.7187 32.3334C15.2474 32.8046 15.2474 33.5659 15.7187 34.0371L20.9628 39.2813C21.4341 39.7526 22.1953 39.7526 22.6666 39.2813L27.4758 34.4721L32.2849 39.2813C32.5266 39.523 32.8287 39.6317 33.1428 39.6317C33.457 39.6317 33.7591 39.5109 34.0008 39.2813L39.2449 34.0371C39.7162 33.5659 39.7162 32.8046 39.2449 32.3334L34.4237 27.5242ZM27.4999 23.8751C28.1645 23.8751 28.7083 24.4188 28.7083 25.0834C28.7083 25.748 28.1645 26.2917 27.4999 26.2917C26.8353 26.2917 26.2916 25.748 26.2916 25.0834C26.2916 24.4188 26.8353 23.8751 27.4999 23.8751ZM21.8087 26.2434L17.4224 21.8692L21.8087 17.483L26.1828 21.8571L21.8087 26.2434ZM25.0833 28.7084C24.4187 28.7084 23.8749 28.1646 23.8749 27.5001C23.8749 26.8355 24.4187 26.2917 25.0833 26.2917C25.7478 26.2917 26.2916 26.8355 26.2916 27.5001C26.2916 28.1646 25.7478 28.7084 25.0833 28.7084ZM27.4999 31.1251C26.8353 31.1251 26.2916 30.5813 26.2916 29.9167C26.2916 29.2521 26.8353 28.7084 27.4999 28.7084C28.1645 28.7084 28.7083 29.2521 28.7083 29.9167C28.7083 30.5813 28.1645 31.1251 27.4999 31.1251ZM29.9166 26.2917C30.5812 26.2917 31.1249 26.8355 31.1249 27.5001C31.1249 28.1646 30.5812 28.7084 29.9166 28.7084C29.252 28.7084 28.7083 28.1646 28.7083 27.5001C28.7083 26.8355 29.252 26.2917 29.9166 26.2917ZM33.1308 37.5776L28.7445 33.2034L33.1308 28.8171L37.5049 33.1913L33.1308 37.5776Z" fill="#717171"/>
</svg>
