<svg width="55" height="55" viewBox="0 0 55 55" fill="none" xmlns="http://www.w3.org/2000/svg">
<circle cx="27.5" cy="27.5" r="27" stroke="#0085FF"/>
<path d="M37.7708 20.25C34.6171 21.0959 30.9196 21.4584 27.5 21.4584C24.0804 21.4584 20.3829 21.0959 17.2292 20.25L16.625 22.6667C18.8725 23.2709 21.4583 23.6696 23.875 23.875V39.5834H26.2917V32.3334H28.7083V39.5834H31.125V23.875C33.5417 23.6696 36.1275 23.2709 38.375 22.6667L37.7708 20.25ZM27.5 20.25C28.8292 20.25 29.9167 19.1625 29.9167 17.8334C29.9167 16.5042 28.8292 15.4167 27.5 15.4167C26.1708 15.4167 25.0833 16.5042 25.0833 17.8334C25.0833 19.1625 26.1708 20.25 27.5 20.25Z" fill="#717171"/>
</svg>
