<svg width="30" height="30" viewBox="0 0 30 30" fill="none" xmlns="http://www.w3.org/2000/svg">
<path d="M18.1256 0H11.8744C5.32681 0 0 4.86844 0 10.8521V15.9995C0 20.4557 2.99563 24.4604 7.5 26.0918V29.4287C7.5 29.6546 7.64556 29.8594 7.87169 29.9509C7.95288 29.9838 8.03925 30 8.125 30C8.277 30 8.42744 29.9493 8.54463 29.8522L12.1686 26.8517H18.1256C24.6732 26.8517 30 21.9832 30 15.9995V10.8521C30 4.86844 24.6732 0 18.1256 0ZM28.75 15.9995C28.75 21.3534 23.9841 25.709 18.1256 25.709H11.9275C11.7724 25.709 11.6229 25.7615 11.5079 25.8569L8.75 28.1405V25.6957C8.75 25.4535 8.58306 25.2376 8.33313 25.1573C4.09669 23.7881 1.25 20.1081 1.25 15.9995V10.8521C1.25 5.49831 6.01594 1.14262 11.8744 1.14262H18.1256C23.9841 1.14262 28.75 5.49831 28.75 10.8521V15.9995Z" fill="white"/>
<path d="M23.26 17.4213L19.4184 15.1405C18.9982 14.8911 18.4987 14.8063 18.0089 14.8989C17.5187 14.9932 17.0979 15.2577 16.8244 15.6432L16.6438 15.897C14.9812 15.3949 13.148 14.7533 12.0506 11.8493L12.505 11.4883H12.5053C13.285 10.8685 13.3671 9.78388 12.6887 9.06974L9.68367 5.90965C9.45717 5.67147 9.0623 5.6469 8.80167 5.85331L6.91511 7.35244C5.2598 8.66748 6.03342 10.613 6.28767 11.2523C6.29892 11.2808 6.31267 11.3081 6.32886 11.3349C6.39449 11.4426 7.96155 13.9985 10.4917 16.3545C13.0324 18.7201 17.6194 20.9049 17.7601 20.9685C18.2841 21.2793 18.8734 21.4283 19.4563 21.4283C20.4799 21.4283 21.4839 20.9697 22.0823 20.1283L23.4437 18.2119C23.6317 17.9468 23.5493 17.5931 23.26 17.4213ZM21.034 19.5057C20.4707 20.2985 19.3074 20.5239 18.3882 19.9821C18.3424 19.9604 13.7858 17.7912 11.3838 15.5545C9.13892 13.4639 7.64842 11.1419 7.44486 10.8177C6.94955 9.54902 7.03717 8.76901 7.7348 8.215L9.15017 7.09078L11.7451 9.81959C11.9755 10.0617 11.949 10.416 11.685 10.6258L10.9181 11.235C10.7313 11.3834 10.6577 11.6183 10.7307 11.8343C12.0384 15.7179 14.5808 16.4806 16.4372 17.038L16.7075 17.1194C16.978 17.2031 17.2746 17.1077 17.4293 16.889L17.8727 16.2652C17.9643 16.1364 18.104 16.0488 18.2664 16.0175C18.4294 15.9858 18.596 16.0153 18.7373 16.099L22.0549 18.0685L21.034 19.5057Z" fill="white"/>
<path d="M16.4265 9.28221C16.0938 9.19457 15.7484 9.37145 15.6541 9.6755C15.5598 9.97904 15.7523 10.2948 16.0841 10.3813C17.0155 10.6234 17.757 11.303 18.0198 12.1549C18.0973 12.4065 18.3481 12.5711 18.621 12.5711C18.6771 12.5711 18.7342 12.5645 18.791 12.5499C19.123 12.464 19.3165 12.1488 19.2228 11.8447C18.8435 10.6139 17.7717 9.63203 16.4265 9.28221Z" fill="white"/>
<path d="M21.1829 12.694C21.2391 12.694 21.2961 12.6873 21.3529 12.6728C21.6852 12.5869 21.8784 12.2711 21.7847 11.9676C21.0474 9.578 18.9664 7.67159 16.3541 6.99207C16.0221 6.90448 15.6763 7.08245 15.5821 7.38542C15.4877 7.6889 15.6803 8.00466 16.0123 8.09116C18.2102 8.66247 19.9613 10.2671 20.5817 12.2778C20.6596 12.5295 20.9101 12.694 21.1829 12.694Z" fill="white"/>
<path d="M16.0849 4.3315C15.7523 4.24392 15.4068 4.4208 15.3125 4.72485C15.2182 5.02839 15.4108 5.34415 15.7425 5.43065C19.4672 6.3992 22.4338 9.11738 23.4848 12.5241C23.5623 12.7757 23.8132 12.9403 24.086 12.9403C24.1422 12.9403 24.1993 12.9336 24.256 12.9191C24.588 12.8331 24.7815 12.5174 24.6878 12.2138C23.5199 8.42833 20.2234 5.40831 16.0849 4.3315Z" fill="white"/>
</svg>
