<svg width="55" height="55" viewBox="0 0 55 55" fill="none" xmlns="http://www.w3.org/2000/svg">
<circle cx="27.5" cy="27.5" r="27" stroke="#0085FF"/>
<path d="M35.9583 19.0417H33.5417V16.625H21.4583V19.0417H19.0417C17.7125 19.0417 16.625 20.1292 16.625 21.4583V22.6667C16.625 25.7479 18.945 28.2612 21.9296 28.6358C22.6908 30.4483 24.3221 31.8138 26.2917 32.2125V35.9583H21.4583V38.375H33.5417V35.9583H28.7083V32.2125C30.6779 31.8138 32.3092 30.4483 33.0704 28.6358C36.055 28.2612 38.375 25.7479 38.375 22.6667V21.4583C38.375 20.1292 37.2875 19.0417 35.9583 19.0417ZM21.4583 26.0742C20.0567 25.5667 19.0417 24.2375 19.0417 22.6667V21.4583H21.4583V26.0742ZM35.9583 22.6667C35.9583 24.2375 34.9433 25.5667 33.5417 26.0742V21.4583H35.9583V22.6667Z" fill="#717171"/>
</svg>
