<svg width="55" height="55" viewBox="0 0 55 55" fill="none" xmlns="http://www.w3.org/2000/svg">
<circle cx="27.5" cy="27.5" r="27" stroke="#0085FF"/>
<path d="M16.1025 20.9541V22H10.0664V20.9541H12.5205V13.5439L10.3467 15.0957V13.9336L12.623 12.3682H13.7578V20.9541H16.1025ZM24.0322 17.1807C24.0322 18.7894 23.7474 20.0176 23.1777 20.8652C22.6126 21.7129 21.7764 22.1367 20.6689 22.1367C19.5615 22.1367 18.7298 21.7152 18.1738 20.8721C17.6178 20.029 17.3398 18.7985 17.3398 17.1807C17.3398 15.5264 17.6087 14.2868 18.1465 13.4619C18.6888 12.637 19.5433 12.2246 20.71 12.2246C21.8447 12.2246 22.681 12.6416 23.2188 13.4756C23.7611 14.3096 24.0322 15.5446 24.0322 17.1807ZM22.7812 17.1807C22.7812 16.251 22.7106 15.4967 22.5693 14.918C22.4326 14.3346 22.2116 13.9062 21.9062 13.6328C21.6009 13.3594 21.2021 13.2227 20.71 13.2227C20.2087 13.2227 19.8008 13.3571 19.4863 13.626C19.1719 13.8949 18.9417 14.321 18.7959 14.9043C18.6546 15.4831 18.584 16.2419 18.584 17.1807C18.584 18.0921 18.6569 18.8395 18.8027 19.4229C18.9531 20.0062 19.1833 20.4368 19.4932 20.7148C19.8031 20.9928 20.1995 21.1318 20.6826 21.1318C21.4072 21.1318 21.9382 20.8083 22.2754 20.1611C22.6126 19.514 22.7812 18.5205 22.7812 17.1807ZM27.1973 20.5029V22H25.8643V20.5029H27.1973ZM35.7217 17.1807C35.7217 18.7894 35.4368 20.0176 34.8672 20.8652C34.3021 21.7129 33.4658 22.1367 32.3584 22.1367C31.251 22.1367 30.4193 21.7152 29.8633 20.8721C29.3073 20.029 29.0293 18.7985 29.0293 17.1807C29.0293 15.5264 29.2982 14.2868 29.8359 13.4619C30.3783 12.637 31.2327 12.2246 32.3994 12.2246C33.5342 12.2246 34.3704 12.6416 34.9082 13.4756C35.4505 14.3096 35.7217 15.5446 35.7217 17.1807ZM34.4707 17.1807C34.4707 16.251 34.4001 15.4967 34.2588 14.918C34.1221 14.3346 33.901 13.9062 33.5957 13.6328C33.2904 13.3594 32.8916 13.2227 32.3994 13.2227C31.8981 13.2227 31.4902 13.3571 31.1758 13.626C30.8613 13.8949 30.6312 14.321 30.4854 14.9043C30.3441 15.4831 30.2734 16.2419 30.2734 17.1807C30.2734 18.0921 30.3464 18.8395 30.4922 19.4229C30.6426 20.0062 30.8727 20.4368 31.1826 20.7148C31.4925 20.9928 31.889 21.1318 32.3721 21.1318C33.0967 21.1318 33.6276 20.8083 33.9648 20.1611C34.3021 19.514 34.4707 18.5205 34.4707 17.1807ZM43.4736 18.8623C43.4736 19.8786 43.1706 20.6784 42.5645 21.2617C41.9629 21.8451 41.1266 22.1367 40.0557 22.1367C39.1579 22.1367 38.4333 21.9408 37.8818 21.5488C37.3304 21.1569 36.9818 20.5895 36.8359 19.8467L38.0801 19.7031C38.2122 20.1771 38.4447 20.5348 38.7773 20.7764C39.11 21.0133 39.5452 21.1318 40.083 21.1318C40.7438 21.1318 41.2611 20.9336 41.6348 20.5371C42.0085 20.1361 42.1953 19.5869 42.1953 18.8896C42.1953 18.2835 42.0062 17.7936 41.6279 17.4199C41.2542 17.0462 40.7484 16.8594 40.1104 16.8594C39.7777 16.8594 39.4678 16.9118 39.1807 17.0166C38.8936 17.1214 38.6064 17.2992 38.3193 17.5498H37.1162L37.4375 12.3682H42.9131V13.4141H38.5586L38.374 16.4697C38.9072 16.0596 39.5703 15.8545 40.3633 15.8545C40.9967 15.8545 41.5459 15.9821 42.0107 16.2373C42.4756 16.488 42.8356 16.8389 43.0908 17.29C43.346 17.7412 43.4736 18.2653 43.4736 18.8623Z" fill="#494949"/>
<path d="M18.5166 41.9541V43H12.4805V41.9541H14.9346V34.5439L12.7607 36.0957V34.9336L15.0371 33.3682H16.1719V41.9541H18.5166ZM26.3301 37.9893C26.3301 39.6436 26.027 40.915 25.4209 41.8037C24.8193 42.6924 23.9603 43.1367 22.8438 43.1367C22.0918 43.1367 21.488 42.9795 21.0322 42.665C20.5811 42.346 20.2575 41.8333 20.0615 41.127L21.2373 40.9424C21.4834 41.7445 22.0257 42.1455 22.8643 42.1455C23.5706 42.1455 24.1175 41.8174 24.5049 41.1611C24.8923 40.5049 25.0951 39.5684 25.1133 38.3516C24.931 38.7617 24.6188 39.0921 24.1768 39.3428C23.7347 39.5889 23.2493 39.7119 22.7207 39.7119C22.1465 39.7119 21.6452 39.5775 21.2168 39.3086C20.7884 39.0397 20.4557 38.6615 20.2188 38.1738C19.9818 37.6862 19.8633 37.1165 19.8633 36.4648C19.8633 35.4577 20.1458 34.667 20.7109 34.0928C21.276 33.514 22.0622 33.2246 23.0693 33.2246C24.1403 33.2246 24.9515 33.6211 25.5029 34.4141C26.0544 35.207 26.3301 36.3988 26.3301 37.9893ZM24.9902 36.7998C24.9902 36.0251 24.8125 35.403 24.457 34.9336C24.1016 34.4596 23.6253 34.2227 23.0283 34.2227C22.4359 34.2227 21.9688 34.4255 21.627 34.8311C21.2852 35.2321 21.1143 35.7767 21.1143 36.4648C21.1143 37.1667 21.2852 37.7227 21.627 38.1328C21.9688 38.5384 22.4313 38.7412 23.0146 38.7412C23.3701 38.7412 23.696 38.6592 23.9922 38.4951C24.293 38.3311 24.5345 38.1032 24.7168 37.8115C24.8991 37.5153 24.9902 37.1781 24.9902 36.7998ZM34.1777 40.3135C34.1777 41.2021 33.8952 41.8949 33.3301 42.3916C32.765 42.8883 31.9538 43.1367 30.8965 43.1367C29.8665 43.1367 29.0599 42.8929 28.4766 42.4053C27.8978 41.9176 27.6084 41.2249 27.6084 40.3271C27.6084 39.6982 27.7884 39.1696 28.1484 38.7412C28.5085 38.3128 28.9688 38.0531 29.5293 37.9619V37.9346C29.0052 37.8115 28.5905 37.5449 28.2852 37.1348C27.9844 36.7246 27.834 36.2438 27.834 35.6924C27.834 34.9587 28.1074 34.3639 28.6543 33.9082C29.2057 33.4525 29.944 33.2246 30.8691 33.2246C31.8171 33.2246 32.5645 33.4479 33.1113 33.8945C33.6628 34.3411 33.9385 34.945 33.9385 35.7061C33.9385 36.2575 33.7858 36.7383 33.4805 37.1484C33.1751 37.5586 32.7581 37.8161 32.2295 37.9209V37.9482C32.8447 38.0485 33.3232 38.3105 33.665 38.7344C34.0068 39.1536 34.1777 39.68 34.1777 40.3135ZM32.6602 35.7744C32.6602 34.6852 32.0632 34.1406 30.8691 34.1406C29.6842 34.1406 29.0918 34.6852 29.0918 35.7744C29.0918 36.3258 29.2467 36.7474 29.5566 37.0391C29.8711 37.3262 30.3132 37.4697 30.8828 37.4697C31.4616 37.4697 31.9014 37.3376 32.2021 37.0732C32.5075 36.8044 32.6602 36.3714 32.6602 35.7744ZM32.8994 40.1973C32.8994 39.6003 32.7217 39.1514 32.3662 38.8506C32.0107 38.5452 31.5117 38.3926 30.8691 38.3926C30.2448 38.3926 29.7572 38.5566 29.4062 38.8848C29.0553 39.2083 28.8799 39.6549 28.8799 40.2246C28.8799 40.8854 29.0485 41.3822 29.3857 41.7148C29.7275 42.0475 30.2357 42.2139 30.9102 42.2139C31.5801 42.2139 32.0791 42.0544 32.4072 41.7354C32.7354 41.4118 32.8994 40.8991 32.8994 40.1973ZM40.8154 40.8193V43H39.6533V40.8193H35.1143V39.8623L39.5234 33.3682H40.8154V39.8486H42.1689V40.8193H40.8154ZM36.249 39.8486H39.6533V36.0068C39.6533 35.7972 39.6533 35.5898 39.6533 35.3848C39.6579 35.1751 39.667 34.9655 39.6807 34.7559C39.5758 34.9564 39.4847 35.1204 39.4072 35.248C39.3298 35.3711 39.2591 35.4782 39.1953 35.5693L36.249 39.8486Z" fill="#006BCD"/>
</svg>
