<svg width="55" height="55" viewBox="0 0 55 55" fill="none" xmlns="http://www.w3.org/2000/svg">
<circle cx="27.5" cy="27.5" r="27" stroke="#0085FF"/>
<path d="M16.082 20.9541V22H9.7041V21.1318C9.93652 20.5986 10.2168 20.127 10.5449 19.7168C10.8776 19.3066 11.2308 18.9375 11.6045 18.6094C11.9782 18.2812 12.3473 17.9759 12.7119 17.6934C12.8942 17.5521 13.0651 17.4108 13.2246 17.2695C13.3887 17.1283 13.5436 16.987 13.6895 16.8457C13.9811 16.5632 14.2158 16.2669 14.3936 15.957C14.5758 15.6471 14.667 15.2962 14.667 14.9043C14.667 14.3757 14.512 13.9655 14.2021 13.6738C13.8923 13.3822 13.4616 13.2363 12.9102 13.2363C12.3861 13.2363 11.9531 13.3799 11.6113 13.667C11.2741 13.9495 11.0758 14.3483 11.0166 14.8633L9.75879 14.7471C9.84993 13.9769 10.1758 13.3639 10.7363 12.9082C11.3014 12.4525 12.026 12.2246 12.9102 12.2246C13.8809 12.2246 14.626 12.4548 15.1455 12.915C15.6696 13.3708 15.9316 14.0202 15.9316 14.8633C15.9316 15.237 15.8451 15.6084 15.6719 15.9775C15.5033 16.3467 15.2503 16.7158 14.9131 17.085C14.7445 17.2673 14.4984 17.502 14.1748 17.7891C13.8512 18.0762 13.4525 18.4134 12.9785 18.8008C12.4544 19.2292 12.0374 19.6165 11.7275 19.9629C11.4176 20.3047 11.1943 20.6351 11.0576 20.9541H16.082ZM23.875 20.9541V22H17.4971V21.1318C17.7295 20.5986 18.0098 20.127 18.3379 19.7168C18.6706 19.3066 19.0238 18.9375 19.3975 18.6094C19.7712 18.2812 20.1403 17.9759 20.5049 17.6934C20.6872 17.5521 20.8581 17.4108 21.0176 17.2695C21.1816 17.1283 21.3366 16.987 21.4824 16.8457C21.7741 16.5632 22.0088 16.2669 22.1865 15.957C22.3688 15.6471 22.46 15.2962 22.46 14.9043C22.46 14.3757 22.305 13.9655 21.9951 13.6738C21.6852 13.3822 21.2546 13.2363 20.7031 13.2363C20.179 13.2363 19.7461 13.3799 19.4043 13.667C19.0671 13.9495 18.8688 14.3483 18.8096 14.8633L17.5518 14.7471C17.6429 13.9769 17.9688 13.3639 18.5293 12.9082C19.0944 12.4525 19.819 12.2246 20.7031 12.2246C21.6738 12.2246 22.4189 12.4548 22.9385 12.915C23.4626 13.3708 23.7246 14.0202 23.7246 14.8633C23.7246 15.237 23.638 15.6084 23.4648 15.9775C23.2962 16.3467 23.0433 16.7158 22.7061 17.085C22.5374 17.2673 22.2913 17.502 21.9678 17.7891C21.6442 18.0762 21.2454 18.4134 20.7715 18.8008C20.2474 19.2292 19.8304 19.6165 19.5205 19.9629C19.2106 20.3047 18.9873 20.6351 18.8506 20.9541H23.875Z" fill="#494949"/>
<path d="M37.1025 20.9541V22H31.0664V20.9541H33.5205V13.5439L31.3467 15.0957V13.9336L33.623 12.3682H34.7578V20.9541H37.1025ZM44.9639 19.3408C44.9639 20.2295 44.6813 20.9176 44.1162 21.4053C43.5511 21.8929 42.7445 22.1367 41.6963 22.1367C40.721 22.1367 39.9417 21.918 39.3584 21.4805C38.7796 21.0384 38.4355 20.3867 38.3262 19.5254L39.5977 19.4092C39.7617 20.5485 40.4613 21.1182 41.6963 21.1182C42.3161 21.1182 42.8014 20.9655 43.1523 20.6602C43.5078 20.3548 43.6855 19.9014 43.6855 19.2998C43.6855 18.7757 43.4827 18.3678 43.0771 18.0762C42.6761 17.7799 42.0951 17.6318 41.334 17.6318H40.6367V16.5654H41.3066C41.9811 16.5654 42.5029 16.4196 42.8721 16.1279C43.2458 15.8317 43.4326 15.4238 43.4326 14.9043C43.4326 14.3893 43.2799 13.9837 42.9746 13.6875C42.6738 13.3867 42.2249 13.2363 41.6279 13.2363C41.0856 13.2363 40.6458 13.3753 40.3086 13.6533C39.9759 13.9313 39.7822 14.3232 39.7275 14.8291L38.4902 14.7334C38.5814 13.945 38.9072 13.3298 39.4678 12.8877C40.0329 12.4456 40.7575 12.2246 41.6416 12.2246C42.6077 12.2246 43.3574 12.4502 43.8906 12.9014C44.4284 13.348 44.6973 13.9723 44.6973 14.7744C44.6973 15.3896 44.5241 15.891 44.1777 16.2783C43.8359 16.6611 43.3369 16.9209 42.6807 17.0576V17.085C43.4007 17.1624 43.9613 17.404 44.3623 17.8096C44.7633 18.2152 44.9639 18.7256 44.9639 19.3408Z" fill="#494949"/>
<path d="M16.1025 41.9541V43H10.0664V41.9541H12.5205V34.5439L10.3467 36.0957V34.9336L12.623 33.3682H13.7578V41.9541H16.1025ZM23.9639 40.3408C23.9639 41.2295 23.6813 41.9176 23.1162 42.4053C22.5511 42.8929 21.7445 43.1367 20.6963 43.1367C19.721 43.1367 18.9417 42.918 18.3584 42.4805C17.7796 42.0384 17.4355 41.3867 17.3262 40.5254L18.5977 40.4092C18.7617 41.5485 19.4613 42.1182 20.6963 42.1182C21.3161 42.1182 21.8014 41.9655 22.1523 41.6602C22.5078 41.3548 22.6855 40.9014 22.6855 40.2998C22.6855 39.7757 22.4827 39.3678 22.0771 39.0762C21.6761 38.7799 21.0951 38.6318 20.334 38.6318H19.6367V37.5654H20.3066C20.9811 37.5654 21.5029 37.4196 21.8721 37.1279C22.2458 36.8317 22.4326 36.4238 22.4326 35.9043C22.4326 35.3893 22.2799 34.9837 21.9746 34.6875C21.6738 34.3867 21.2249 34.2363 20.6279 34.2363C20.0856 34.2363 19.6458 34.3753 19.3086 34.6533C18.9759 34.9313 18.7822 35.3232 18.7275 35.8291L17.4902 35.7334C17.5814 34.945 17.9072 34.3298 18.4678 33.8877C19.0329 33.4456 19.7575 33.2246 20.6416 33.2246C21.6077 33.2246 22.3574 33.4502 22.8906 33.9014C23.4284 34.348 23.6973 34.9723 23.6973 35.7744C23.6973 36.3896 23.5241 36.891 23.1777 37.2783C22.8359 37.6611 22.3369 37.9209 21.6807 38.0576V38.085C22.4007 38.1624 22.9613 38.404 23.3623 38.8096C23.7633 39.2152 23.9639 39.7256 23.9639 40.3408Z" fill="#494949"/>
<path d="M37.1025 41.9541V43H31.0664V41.9541H33.5205V34.5439L31.3467 36.0957V34.9336L33.623 33.3682H34.7578V41.9541H37.1025ZM43.8564 41.9541V43H37.8203V41.9541H40.2744V34.5439L38.1006 36.0957V34.9336L40.377 33.3682H41.5117V41.9541H43.8564Z" fill="#006BCD"/>
</svg>
