<svg width="55" height="55" viewBox="0 0 55 55" fill="none" xmlns="http://www.w3.org/2000/svg">
<circle cx="27.5" cy="27.5" r="27" stroke="#0085FF"/>
<path d="M31.7292 26.2917C32.7302 26.2917 33.5417 25.4802 33.5417 24.4792C33.5417 23.4782 32.7302 22.6667 31.7292 22.6667C30.7282 22.6667 29.9167 23.4782 29.9167 24.4792C29.9167 25.4802 30.7282 26.2917 31.7292 26.2917Z" fill="#717171"/>
<path d="M23.2708 26.2917C24.2718 26.2917 25.0833 25.4802 25.0833 24.4792C25.0833 23.4782 24.2718 22.6667 23.2708 22.6667C22.2698 22.6667 21.4583 23.4782 21.4583 24.4792C21.4583 25.4802 22.2698 26.2917 23.2708 26.2917Z" fill="black" fill-opacity="0.54"/>
<path d="M27.4879 15.4167C20.8179 15.4167 15.4167 20.83 15.4167 27.5C15.4167 34.17 20.8179 39.5834 27.4879 39.5834C34.17 39.5834 39.5834 34.17 39.5834 27.5C39.5834 20.83 34.17 15.4167 27.4879 15.4167ZM27.5 37.1667C22.1592 37.1667 17.8334 32.8409 17.8334 27.5C17.8334 22.1592 22.1592 17.8334 27.5 17.8334C32.8409 17.8334 37.1667 22.1592 37.1667 27.5C37.1667 32.8409 32.8409 37.1667 27.5 37.1667ZM27.5 29.9167C25.2042 29.9167 23.1138 31.0888 21.8813 33.0342C21.6154 33.4571 21.7484 34.0129 22.1713 34.2788C22.5942 34.5446 23.15 34.4117 23.4159 33.9888C24.31 32.5629 25.8325 31.7171 27.5 31.7171C29.1675 31.7171 30.69 32.5629 31.5842 33.9888C31.7534 34.2667 32.0554 34.4117 32.3575 34.4117C32.5267 34.4117 32.6838 34.3634 32.8409 34.2788C33.2638 34.0129 33.3967 33.4571 33.1309 33.0342C31.8863 31.0767 29.7959 29.9167 27.5 29.9167Z" fill="black" fill-opacity="0.54"/>
</svg>
