<svg width="136" height="37" viewBox="0 0 136 37" fill="none" xmlns="http://www.w3.org/2000/svg">
<circle cx="11.5" cy="16.5" r="11.5" fill="#848484"/>
<path d="M12.7881 20.7607V31H10.2041V18.6162H20.7334V31H18.2285V20.7607H12.7881ZM25.2334 26.7197C25.2334 27.6455 25.4033 28.3457 25.7432 28.8203C26.0889 29.2891 26.5781 29.5234 27.2109 29.5234C27.6445 29.5234 27.999 29.4297 28.2744 29.2422C28.5557 29.0488 28.752 28.7646 28.8633 28.3896L31.1924 28.5918C30.5186 30.3145 29.1504 31.1758 27.0879 31.1758C25.6582 31.1758 24.5596 30.7539 23.792 29.9102C23.0244 29.0605 22.6406 27.8242 22.6406 26.2012C22.6406 24.6309 23.0303 23.4238 23.8096 22.5801C24.5889 21.7363 25.6934 21.3145 27.123 21.3145C28.4883 21.3145 29.5312 21.7686 30.252 22.6768C30.9727 23.5791 31.333 24.9033 31.333 26.6494V26.7197H25.2334ZM28.9424 25.1729C28.8955 24.4053 28.7109 23.8311 28.3887 23.4502C28.0664 23.0635 27.6328 22.8701 27.0879 22.8701C26.5078 22.8701 26.0596 23.0723 25.7432 23.4766C25.4326 23.8809 25.2686 24.4463 25.251 25.1729H28.9424ZM42.2139 26.2012C42.2139 27.7891 41.8945 29.0166 41.2559 29.8838C40.623 30.7451 39.7266 31.1758 38.5664 31.1758C37.1895 31.1758 36.2285 30.6133 35.6836 29.4883H35.6309C35.666 29.6641 35.6836 30.1973 35.6836 31.0879V34.7354H33.2139V23.6787C33.2139 23.2275 33.208 22.8203 33.1963 22.457C33.1846 22.0938 33.167 21.7715 33.1436 21.4902H35.543C35.5664 21.5605 35.584 21.6807 35.5957 21.8506C35.6133 22.0146 35.625 22.2021 35.6309 22.4131C35.6426 22.624 35.6484 22.832 35.6484 23.0371H35.6836C35.959 22.4512 36.3516 22.0146 36.8613 21.7275C37.3711 21.4346 37.9922 21.2881 38.7246 21.2881C39.832 21.2881 40.6904 21.7158 41.2998 22.5713C41.9092 23.4209 42.2139 24.6309 42.2139 26.2012ZM39.6387 26.2012C39.6387 25.1348 39.4746 24.335 39.1465 23.8018C38.8242 23.2686 38.335 23.002 37.6787 23.002C37.0225 23.002 36.5186 23.2891 36.167 23.8633C35.8213 24.4375 35.6484 25.2402 35.6484 26.2715C35.6484 27.2969 35.8213 28.0908 36.167 28.6533C36.5186 29.21 37.0166 29.4883 37.6611 29.4883C38.3232 29.4883 38.8184 29.2158 39.1465 28.6709C39.4746 28.1201 39.6387 27.2969 39.6387 26.2012ZM48.1816 31.1758C46.7402 31.1758 45.627 30.748 44.8418 29.8926C44.0566 29.0312 43.6641 27.833 43.6641 26.2979C43.6641 24.7275 44.0596 23.5059 44.8506 22.6328C45.6416 21.7539 46.7637 21.3145 48.2168 21.3145C49.3359 21.3145 50.2617 21.5957 50.9941 22.1582C51.7266 22.7207 52.1865 23.4971 52.374 24.4873L49.8867 24.6104C49.8164 24.124 49.6406 23.7373 49.3594 23.4502C49.0781 23.1572 48.6797 23.0107 48.1641 23.0107C47.5254 23.0107 47.0479 23.2773 46.7314 23.8105C46.415 24.3379 46.2568 25.1348 46.2568 26.2012C46.2568 27.2969 46.418 28.1201 46.7402 28.6709C47.0684 29.2158 47.5547 29.4883 48.1992 29.4883C48.668 29.4883 49.0605 29.3418 49.377 29.0488C49.6934 28.75 49.8896 28.3076 49.9658 27.7217L52.4443 27.8359C52.3564 28.5039 52.1191 29.0898 51.7324 29.5938C51.3516 30.0918 50.8564 30.4814 50.2471 30.7627C49.6377 31.0381 48.9492 31.1758 48.1816 31.1758ZM63.2725 26.2363C63.2725 27.7773 62.8447 28.9873 61.9893 29.8662C61.1338 30.7393 59.9502 31.1758 58.4385 31.1758C56.9561 31.1758 55.793 30.7363 54.9492 29.8574C54.1055 28.9785 53.6836 27.7715 53.6836 26.2363C53.6836 24.707 54.1055 23.5059 54.9492 22.6328C55.793 21.7539 56.9736 21.3145 58.4912 21.3145C60.0439 21.3145 61.2275 21.7393 62.042 22.5889C62.8623 23.4326 63.2725 24.6484 63.2725 26.2363ZM60.6885 26.2363C60.6885 25.1055 60.5039 24.2852 60.1348 23.7754C59.7656 23.2656 59.2295 23.0107 58.5264 23.0107C57.7764 23.0107 57.2139 23.2803 56.8389 23.8193C56.4639 24.3525 56.2764 25.1582 56.2764 26.2363C56.2764 27.2969 56.458 28.1055 56.8213 28.6621C57.1904 29.2129 57.7207 29.4883 58.4121 29.4883C59.1738 29.4883 59.7422 29.2188 60.1172 28.6797C60.498 28.1348 60.6885 27.3203 60.6885 26.2363ZM67.7197 26.9307V31H65.2412V21.4902H67.7197V25.252H71.1211V21.4902H73.5996V31H71.1211V26.9307H67.7197ZM78.3193 31.1758C77.3994 31.1758 76.6816 30.9268 76.166 30.4287C75.6504 29.9248 75.3926 29.2188 75.3926 28.3105C75.3926 27.3262 75.7119 26.5791 76.3506 26.0693C76.9951 25.5596 77.9268 25.293 79.1455 25.2695L81.1934 25.2344V24.751C81.1934 24.1299 81.085 23.6699 80.8682 23.3711C80.6514 23.0664 80.2969 22.9141 79.8047 22.9141C79.3477 22.9141 79.0107 23.0195 78.7939 23.2305C78.583 23.4355 78.4512 23.7783 78.3984 24.2588L75.8232 24.1357C76.1455 22.2549 77.5078 21.3145 79.9102 21.3145C81.1113 21.3145 82.0371 21.6104 82.6875 22.2021C83.3379 22.7939 83.6631 23.6348 83.6631 24.7246V28.1875C83.6631 28.7207 83.7217 29.0898 83.8389 29.2949C83.9619 29.4941 84.1641 29.5938 84.4453 29.5938C84.6328 29.5938 84.8145 29.5762 84.9902 29.541V30.877C84.6855 30.9531 84.4248 31.0088 84.208 31.0439C83.9912 31.085 83.7246 31.1055 83.4082 31.1055C82.7871 31.1055 82.3271 30.9531 82.0283 30.6484C81.7354 30.3438 81.5596 29.8955 81.501 29.3037H81.4482C81.1025 29.9248 80.6689 30.3936 80.1475 30.71C79.626 31.0205 79.0166 31.1758 78.3193 31.1758ZM81.1934 26.5967L79.9277 26.6143C79.3477 26.6436 78.9404 26.7051 78.7061 26.7988C78.4658 26.9043 78.2812 27.0625 78.1523 27.2734C78.0293 27.4844 77.9678 27.7656 77.9678 28.1172C77.9678 28.5684 78.0703 28.9053 78.2754 29.1279C78.4863 29.3447 78.7646 29.4531 79.1104 29.4531C79.4971 29.4531 79.8516 29.3477 80.1738 29.1367C80.4902 28.9258 80.7393 28.6357 80.9209 28.2666C81.1025 27.8916 81.1934 27.4961 81.1934 27.0801V26.5967ZM88.5234 29.9102C88.3125 30.3555 88.0459 30.6777 87.7236 30.877C87.4014 31.0762 86.9678 31.1758 86.4229 31.1758C86.2119 31.1758 85.9658 31.1641 85.6846 31.1406C85.4092 31.1172 85.2041 31.0908 85.0693 31.0615V29.3828C85.2217 29.4355 85.4209 29.4619 85.667 29.4619C85.7783 29.4619 85.9072 29.4268 86.0537 29.3564C86.2002 29.2803 86.3496 29.084 86.502 28.7676C86.6602 28.4512 86.8066 27.9326 86.9414 27.2119C86.9883 26.9775 87.0381 26.6846 87.0908 26.333C87.1494 25.9814 87.2139 25.5713 87.2842 25.1025C87.3545 24.6279 87.4307 24.0918 87.5127 23.4941C87.6006 22.8906 87.6943 22.2227 87.7939 21.4902H95.0625V31H92.584V23.1602H89.8594C89.707 24.3086 89.5693 25.2812 89.4463 26.0781C89.3232 26.8691 89.2148 27.4844 89.1211 27.9238C88.9395 28.7852 88.7402 29.4473 88.5234 29.9102ZM107.719 22.5361C107.719 23.3389 107.534 24.0508 107.165 24.6719C106.802 25.2871 106.283 25.7705 105.609 26.1221C104.936 26.4678 104.133 26.6406 103.201 26.6406H100.125V31H97.5322V18.6162H103.096C104.578 18.6162 105.718 18.959 106.515 19.6445C107.317 20.3242 107.719 21.2881 107.719 22.5361ZM105.108 22.5801C105.108 21.2793 104.341 20.6289 102.806 20.6289H100.125V24.6455H102.876C103.591 24.6455 104.142 24.4697 104.528 24.1182C104.915 23.7607 105.108 23.248 105.108 22.5801ZM112.131 26.2979V31H109.538V18.6162H115.726C117.202 18.6162 118.342 18.9355 119.145 19.5742C119.947 20.207 120.349 21.1182 120.349 22.3076C120.349 23.1748 120.103 23.9248 119.61 24.5576C119.118 25.1846 118.453 25.5977 117.615 25.7969L120.964 31H118.046L115.172 26.2979H112.131ZM117.738 22.4131C117.738 21.8213 117.548 21.376 117.167 21.0771C116.786 20.7783 116.215 20.6289 115.453 20.6289H112.131V24.2852H115.523C116.25 24.2852 116.801 24.1211 117.176 23.793C117.551 23.4648 117.738 23.0049 117.738 22.4131ZM134.587 24.751C134.587 26.04 134.326 27.168 133.805 28.1348C133.289 29.0957 132.56 29.8428 131.616 30.376C130.679 30.9092 129.577 31.1758 128.312 31.1758C127.017 31.1758 125.903 30.918 124.972 30.4023C124.04 29.8809 123.325 29.1396 122.827 28.1787C122.329 27.2178 122.08 26.0752 122.08 24.751C122.08 23.4268 122.326 22.293 122.818 21.3496C123.316 20.4062 124.031 19.6855 124.963 19.1875C125.9 18.6836 127.022 18.4316 128.329 18.4316C129.642 18.4316 130.764 18.6865 131.695 19.1963C132.627 19.7002 133.342 20.4238 133.84 21.3672C134.338 22.3105 134.587 23.4385 134.587 24.751ZM131.941 24.751C131.941 23.415 131.625 22.3691 130.992 21.6133C130.359 20.8516 129.472 20.4707 128.329 20.4707C127.169 20.4707 126.272 20.8486 125.64 21.6045C125.007 22.3545 124.69 23.4033 124.69 24.751C124.69 25.6533 124.837 26.4326 125.13 27.0889C125.423 27.7451 125.839 28.252 126.378 28.6094C126.923 28.9609 127.567 29.1367 128.312 29.1367C129.472 29.1367 130.365 28.7559 130.992 27.9941C131.625 27.2324 131.941 26.1514 131.941 24.751Z" fill="white"/>
</svg>
